<svg width="20" height="20" viewBox="0 0 20 20" fill="none" xmlns="http://www.w3.org/2000/svg">
<path d="M1.67289 13.1743C1.85863 10.2634 2.40549 8.13325 2.86889 6.89592C3.10284 6.27125 3.60616 5.80607 4.25056 5.65018C7.83391 4.78327 12.1648 4.78327 15.7482 5.65018C16.3926 5.80607 16.8959 6.27125 17.1298 6.89592C17.5932 8.13325 18.1401 10.2634 18.3258 13.1743C18.437 14.9157 17.1783 15.8753 15.7851 16.5771C14.8977 17.0241 14.2153 15.7048 13.7622 14.6836C13.5147 14.1257 12.9716 13.7797 12.3561 13.7797H7.64265C7.0271 13.7797 6.484 14.1257 6.23648 14.6836C5.78342 15.7048 5.10102 17.0241 4.2136 16.5771C2.83447 15.8824 1.56088 14.9297 1.67289 13.1743Z" stroke="#4E5158" stroke-width="1.5" stroke-linecap="round" stroke-linejoin="round"/>
<path d="M4.16602 3.75001L5.80172 3.33334M15.8327 3.75001L14.166 3.33334" stroke="#4E5158" stroke-width="1.5" stroke-linecap="round" stroke-linejoin="round"/>
<path d="M7.5 10.8333L6.25 9.58334M6.25 9.58334L5 8.33334M6.25 9.58334L5 10.8333M6.25 9.58334L7.5 8.33334" stroke="#4E5158" stroke-width="1.5" stroke-linecap="round"/>
<path d="M13.3241 8.33334H13.3315" stroke="#4E5158" stroke-width="2" stroke-linecap="round" stroke-linejoin="round"/>
<path d="M14.9901 10.8333H14.9976" stroke="#4E5158" stroke-width="2" stroke-linecap="round" stroke-linejoin="round"/>
</svg>
