<svg width="20" height="20" viewBox="0 0 20 20" fill="none" xmlns="http://www.w3.org/2000/svg">
<path d="M1.66602 5.83333C1.66602 4.66656 1.66602 4.08317 1.89309 3.63752C2.09282 3.24552 2.41153 2.92681 2.80354 2.72707C3.24918 2.5 3.83257 2.5 4.99935 2.5C6.16612 2.5 6.74951 2.5 7.19516 2.72707C7.58717 2.92681 7.90588 3.24552 8.10561 3.63752C8.33268 4.08317 8.33268 4.66656 8.33268 5.83333V14.1667C8.33268 15.3334 8.33268 15.9168 8.10561 16.3625C7.90588 16.7545 7.58717 17.0732 7.19516 17.2729C6.74951 17.5 6.16612 17.5 4.99935 17.5C3.83257 17.5 3.24918 17.5 2.80354 17.2729C2.41153 17.0732 2.09282 16.7545 1.89309 16.3625C1.66602 15.9168 1.66602 15.3334 1.66602 14.1667V5.83333Z" stroke="#4E5158" stroke-width="1.5" stroke-linecap="round" stroke-linejoin="round"/>
<path d="M5 14.1667H5.00748" stroke="#4E5158" stroke-width="2" stroke-linecap="round" stroke-linejoin="round"/>
<path d="M1.66602 5.83334H8.33268" stroke="#4E5158" stroke-width="1.5" stroke-linecap="round" stroke-linejoin="round"/>
<path d="M9.53987 6.89036C9.24412 5.78198 9.09625 5.2278 9.19809 4.74666C9.28767 4.32344 9.50839 3.93956 9.82859 3.65004C10.1926 3.3209 10.7445 3.17241 11.8483 2.87542C12.952 2.57843 13.5039 2.42994 13.983 2.53221C14.4045 2.62217 14.7868 2.8438 15.0751 3.16534C15.4029 3.53089 15.5508 4.08507 15.8465 5.19344L17.9588 13.1096C18.2546 14.218 18.4025 14.7722 18.3006 15.2533C18.211 15.6766 17.9903 16.0604 17.6701 16.35C17.3061 16.6791 16.7542 16.8276 15.6504 17.1246C14.5467 17.4216 13.9948 17.5701 13.5157 17.4678C13.0942 17.3778 12.7119 17.1562 12.4236 16.8347C12.0958 16.4691 11.9479 15.9149 11.6522 14.8066L9.53987 6.89036Z" stroke="#4E5158" stroke-width="1.5" stroke-linecap="round" stroke-linejoin="round"/>
<path d="M14.8184 13.9128L14.8256 13.9108" stroke="#4E5158" stroke-width="2" stroke-linecap="round" stroke-linejoin="round"/>
<path d="M10 6.66682L15.4168 5" stroke="#4E5158" stroke-width="1.5" stroke-linecap="round" stroke-linejoin="round"/>
</svg>
