<svg width="88" height="88" viewBox="0 0 88 88" fill="none" xmlns="http://www.w3.org/2000/svg">
<g filter="url(#filter0_ii_3568_54614)">
<rect width="88" height="88" rx="28" fill="#F1F3FD"/>
</g>
<mask id="mask0_3568_54614" style="mask-type:alpha" maskUnits="userSpaceOnUse" x="0" y="0" width="88" height="88">
<rect width="88" height="88" rx="28" fill="#F3F5F9"/>
</mask>
<g mask="url(#mask0_3568_54614)">
<g filter="url(#filter1_f_3568_54614)" style="mix-blend-mode:screen">
<rect width="88" height="88" rx="28" fill="url(#paint0_linear_3568_54614)"/>
<rect x="0.37931" y="0.37931" width="87.2414" height="87.2414" rx="27.6207" stroke="url(#paint1_radial_3568_54614)" stroke-width="0.758621"/>
</g>
<path d="M58.5949 50.3698H50.7919L46.8455 44.855V44.8541H54.6475L58.5949 50.3698Z" fill="#566DEF"/>
<path d="M66.8403 61.8919H40.4752V45.8036L33.4662 55.5983H38.4029V61.8919H21.1597L25.6641 55.5983L40.0989 35.4276L40.4752 34.9009L44.0004 29.9763L46.8455 26V55.5983H54.5338L51.9888 52.0418H59.7908L62.3358 55.5983L66.8403 61.8919Z" fill="#252841"/>
<g filter="url(#filter2_f_3568_54614)">
<rect width="88" height="88" rx="28" fill="url(#paint2_linear_3568_54614)"/>
<rect x="0.37931" y="0.37931" width="87.2414" height="87.2414" rx="27.6207" stroke="url(#paint3_radial_3568_54614)" stroke-width="0.758621"/>
</g>
<g style="mix-blend-mode:overlay">
<path d="M58.5949 50.3698H50.7919L46.8455 44.855V44.8541H54.6475L58.5949 50.3698Z" fill="#566DEF"/>
<path d="M66.8403 61.8919H40.4752V45.8036L33.4662 55.5983H38.4029V61.8919H21.1597L25.6641 55.5983L40.0989 35.4276L40.4752 34.9009L44.0004 29.9763L46.8455 26V55.5983H54.5338L51.9888 52.0418H59.7908L62.3358 55.5983L66.8403 61.8919Z" fill="#252841"/>
</g>
<g style="mix-blend-mode:multiply" opacity="0.64">
<path d="M58.5949 50.3698H50.7919L46.8455 44.855V44.8541H54.6475L58.5949 50.3698Z" fill="#566DEF"/>
<path d="M66.8403 61.8919H40.4752V45.8036L33.4662 55.5983H38.4029V61.8919H21.1597L25.6641 55.5983L40.0989 35.4276L40.4752 34.9009L44.0004 29.9763L46.8455 26V55.5983H54.5338L51.9888 52.0418H59.7908L62.3358 55.5983L66.8403 61.8919Z" fill="#252841"/>
</g>
<g filter="url(#filter3_f_3568_54614)" style="mix-blend-mode:plus-lighter">
<path d="M30.4361 91.0345L13.6553 35.6552H91.0346L74.2537 91.0345H30.4361Z" fill="url(#paint4_linear_3568_54614)" fill-opacity="0.62"/>
<path d="M73.9717 90.6556L90.5234 36.0345H14.167L30.7178 90.6556H73.9717Z" stroke="url(#paint5_radial_3568_54614)" stroke-width="0.758621"/>
</g>
</g>
<rect width="88" height="88" rx="28" fill="url(#paint6_radial_3568_54614)"/>
<defs>
<filter id="filter0_ii_3568_54614" x="0" y="-1.51724" width="88.7586" height="89.5172" filterUnits="userSpaceOnUse" color-interpolation-filters="sRGB">
<feFlood flood-opacity="0" result="BackgroundImageFix"/>
<feBlend mode="normal" in="SourceGraphic" in2="BackgroundImageFix" result="shape"/>
<feColorMatrix in="SourceAlpha" type="matrix" values="0 0 0 0 0 0 0 0 0 0 0 0 0 0 0 0 0 0 127 0" result="hardAlpha"/>
<feOffset dy="-1.51724"/>
<feGaussianBlur stdDeviation="5.38621"/>
<feComposite in2="hardAlpha" operator="arithmetic" k2="-1" k3="1"/>
<feColorMatrix type="matrix" values="0 0 0 0 0.3282 0 0 0 0 0.3282 0 0 0 0 0.3282 0 0 0 1 0"/>
<feBlend mode="normal" in2="shape" result="effect1_innerShadow_3568_54614"/>
<feColorMatrix in="SourceAlpha" type="matrix" values="0 0 0 0 0 0 0 0 0 0 0 0 0 0 0 0 0 0 127 0" result="hardAlpha"/>
<feOffset dx="0.758621" dy="-0.758621"/>
<feGaussianBlur stdDeviation="26.6655"/>
<feComposite in2="hardAlpha" operator="arithmetic" k2="-1" k3="1"/>
<feColorMatrix type="matrix" values="0 0 0 0 1 0 0 0 0 1 0 0 0 0 1 0 0 0 1 0"/>
<feBlend mode="normal" in2="effect1_innerShadow_3568_54614" result="effect2_innerShadow_3568_54614"/>
</filter>
<filter id="filter1_f_3568_54614" x="-49.9172" y="-49.9172" width="187.834" height="187.834" filterUnits="userSpaceOnUse" color-interpolation-filters="sRGB">
<feFlood flood-opacity="0" result="BackgroundImageFix"/>
<feBlend mode="normal" in="SourceGraphic" in2="BackgroundImageFix" result="shape"/>
<feGaussianBlur stdDeviation="24.9586" result="effect1_foregroundBlur_3568_54614"/>
</filter>
<filter id="filter2_f_3568_54614" x="-49.9172" y="-49.9172" width="187.834" height="187.834" filterUnits="userSpaceOnUse" color-interpolation-filters="sRGB">
<feFlood flood-opacity="0" result="BackgroundImageFix"/>
<feBlend mode="normal" in="SourceGraphic" in2="BackgroundImageFix" result="shape"/>
<feGaussianBlur stdDeviation="24.9586" result="effect1_foregroundBlur_3568_54614"/>
</filter>
<filter id="filter3_f_3568_54614" x="-62.2068" y="-40.2069" width="229.104" height="207.103" filterUnits="userSpaceOnUse" color-interpolation-filters="sRGB">
<feFlood flood-opacity="0" result="BackgroundImageFix"/>
<feBlend mode="normal" in="SourceGraphic" in2="BackgroundImageFix" result="shape"/>
<feGaussianBlur stdDeviation="37.931" result="effect1_foregroundBlur_3568_54614"/>
</filter>
<linearGradient id="paint0_linear_3568_54614" x1="44" y1="17.0612" x2="44" y2="88" gradientUnits="userSpaceOnUse">
<stop stop-color="#576EEF"/>
<stop offset="1" stop-color="#DCDFF3" stop-opacity="0"/>
</linearGradient>
<radialGradient id="paint1_radial_3568_54614" cx="0" cy="0" r="1" gradientTransform="matrix(83.0224 61.875 -2.31735 83.0224 8.47614 17.875)" gradientUnits="userSpaceOnUse">
<stop stop-color="#566DEF"/>
<stop offset="0.658768" stop-color="#C6CBEA"/>
<stop offset="0.989098" stop-color="#5066E2"/>
</radialGradient>
<linearGradient id="paint2_linear_3568_54614" x1="44" y1="17.0612" x2="44" y2="88" gradientUnits="userSpaceOnUse">
<stop stop-color="#576EEF"/>
<stop offset="0.398437" stop-color="#91A0F4" stop-opacity="0.601563"/>
<stop offset="1" stop-color="#E8EBFC" stop-opacity="0"/>
</linearGradient>
<radialGradient id="paint3_radial_3568_54614" cx="0" cy="0" r="1" gradientTransform="matrix(83.0224 61.875 -2.31735 83.0224 8.47614 17.875)" gradientUnits="userSpaceOnUse">
<stop stop-color="#566DEF"/>
<stop offset="0.658768" stop-color="#C6CBEA"/>
<stop offset="0.989098" stop-color="#5066E2"/>
</radialGradient>
<linearGradient id="paint4_linear_3568_54614" x1="52.4292" y1="82.1666" x2="52.386" y2="35.6551" gradientUnits="userSpaceOnUse">
<stop stop-color="#2241F0"/>
<stop offset="1" stop-color="#CED4F8" stop-opacity="0"/>
</linearGradient>
<radialGradient id="paint5_radial_3568_54614" cx="0" cy="0" r="1" gradientTransform="matrix(73.0025 -38.9386 -2.03767 -52.2469 21.1084 79.7856)" gradientUnits="userSpaceOnUse">
<stop stop-color="#566DEF"/>
<stop offset="0.658768" stop-color="#C6CBEA"/>
<stop offset="0.989098" stop-color="#5066E2"/>
</radialGradient>
<radialGradient id="paint6_radial_3568_54614" cx="0" cy="0" r="1" gradientUnits="userSpaceOnUse" gradientTransform="translate(44 44) rotate(90) scale(49.3103)">
<stop stop-color="#8DA6FF" stop-opacity="0"/>
<stop offset="0.994855" stop-color="#3E51BB" stop-opacity="0.13"/>
</radialGradient>
</defs>
</svg>
